<svg xmlns="http://www.w3.org/2000/svg" width="25" height="25" viewBox="0 0 25 25"><g fill="#fff" transform="translate(4.417 -1032.375)"><circle cx="8.083" cy="1044.875" r="12.5" fill="#ef4c45" fill-rule="evenodd"/><path fill="#df2209" style="line-height:normal;text-indent:0;text-align:start;text-decoration-line:none;text-decoration-style:solid;text-decoration-color:#000;text-transform:none;block-progression:tb;isolation:auto;mix-blend-mode:normal" d="M 15.599609 24.599609 A 12.5 12.5 0 0 0 15.84375 24.544922 A 12.5 12.5 0 0 0 17.029297 24.150391 A 12.5 12.5 0 0 0 18.169922 23.640625 A 12.5 12.5 0 0 0 19.253906 23.017578 A 12.5 12.5 0 0 0 20.269531 22.291016 A 12.5 12.5 0 0 0 21.208984 21.466797 A 12.5 12.5 0 0 0 22.060547 20.552734 A 12.5 12.5 0 0 0 22.816406 19.558594 A 12.5 12.5 0 0 0 23.470703 18.492188 A 12.5 12.5 0 0 0 24.013672 17.367188 A 12.5 12.5 0 0 0 24.441406 16.193359 A 12.5 12.5 0 0 0 24.59375 15.59375 L 17 8 L 8 8 L 8 9 L 10 11 L 11 12 L 8 12 L 8 13 L 10 15 L 11 16 L 8 16 L 8 17 L 15.599609 24.599609 z " color="#000" font-family="sans-serif" font-weight="400" transform="translate(-4.417 1032.375)"/><path d="m 3.0039062,3.0078125 0,1 8.9999998,0 0,-1 -8.9999998,0 z m 2,2 0,1 4.9999998,0 0,-1 -4.9999998,0 z m -2,2 0,1 8.9999998,0 0,-1 -8.9999998,0 z m 2,2 0,0.9999995 4.9999998,0 0,-0.9999995 -4.9999998,0 z m -2,1.9999995 0,1 8.9999998,0 0,-1 -8.9999998,0 z" color="#000" font-family="sans-serif" font-weight="400" overflow="visible" transform="translate(.58 1037.367)" style="line-height:normal;text-indent:0;text-align:start;text-decoration-line:none;text-decoration-style:solid;text-decoration-color:#000;text-transform:none;block-progression:tb;isolation:auto;mix-blend-mode:normal"/></g></svg>