<svg xmlns="http://www.w3.org/2000/svg" xmlns:xlink="http://www.w3.org/1999/xlink" width="470" height="468" viewBox="0 0 470 468"><defs><filter id="a" width="111.8%" height="111.9%" x="-5.9%" y="-3.9%" filterUnits="objectBoundingBox"><feOffset dy="5" in="SourceAlpha" result="shadowOffsetOuter1"/><feGaussianBlur in="shadowOffsetOuter1" result="shadowBlurOuter1" stdDeviation="4"/><feColorMatrix in="shadowBlurOuter1" result="shadowMatrixOuter1" values="0 0 0 0 0 0 0 0 0 0 0 0 0 0 0 0 0 0 0.078125 0"/><feOffset dy="4" in="SourceAlpha" result="shadowOffsetOuter2"/><feGaussianBlur in="shadowOffsetOuter2" result="shadowBlurOuter2" stdDeviation="5.5"/><feColorMatrix in="shadowBlurOuter2" result="shadowMatrixOuter2" values="0 0 0 0 0 0 0 0 0 0 0 0 0 0 0 0 0 0 0.210824275 0"/><feMerge><feMergeNode in="shadowMatrixOuter1"/><feMergeNode in="shadowMatrixOuter2"/></feMerge></filter><path id="b" d="M9.635 132.808C24.782 59.782 71.388 19.109 144.085 6.822c53.74-9.081 107.5-9.196 161.15.255 74.852 13.185 119.85 56.23 134.185 130.36 11.075 57.29 11.249 115.191-.174 172.427-15.324 72.52-63.132 117.285-135.561 129.527-53.74 9.08-107.5 9.195-161.15-.255-74.852-13.186-120.05-58.38-134.384-132.509-11.64-57.668-10.52-115.935 1.484-173.82z"/></defs><g fill="none" fill-rule="evenodd" transform="translate(-21 -26)"><g transform="translate(32 33)"><use fill="#000" filter="url(#a)" xlink:href="#b"/><use fill="#60BAFF" xlink:href="#b"/></g><path fill="#FFF" d="M322.15 106c9.306 0 16.85 7.544 16.85 16.851v182.504C339 320.07 327.07 332 312.355 332H155.66c-8.433 0-12.389-10.43-6.077-16.022l82.542-82.542L244.5 245.81l-68.692 68.69H308.94c6.937 0 12.56-5.624 12.56-12.56v-30.712l-25.984-25.983-45.605 45.607-12.374-12.374 47.144-47.146c5.986-5.984 15.688-5.984 21.672 0l1.538 1.54 13.61 13.607V123.5h-194V332H110V122.851c0-9.307 7.543-16.85 16.85-16.85h195.298zm-102.817 79.444c0 17.12-13.879 31-31 31-17.12 0-31-13.88-31-31 0-17.121 13.88-31 31-31 17.121 0 31 13.879 31 31zm-48.333 0c0 9.573 7.761 17.333 17.333 17.333 9.573 0 17.334-7.76 17.334-17.333 0-9.573-7.761-17.333-17.334-17.333-9.572 0-17.333 7.76-17.333 17.333z" transform="translate(32 33)"/></g></svg>