<svg width="389" height="78" viewBox="0 0 389 78" fill="none" xmlns="http://www.w3.org/2000/svg">
<path d="M110.156 52.1875C110.156 51.3125 110.021 50.5312 109.75 49.8438C109.5 49.1354 109.031 48.5 108.344 47.9375C107.677 47.3542 106.729 46.7917 105.5 46.25C104.292 45.6875 102.729 45.1042 100.812 44.5C98.6875 43.8333 96.7083 43.0833 94.875 42.25C93.0417 41.4167 91.4271 40.4479 90.0312 39.3438C88.6562 38.2396 87.5833 36.9688 86.8125 35.5312C86.0417 34.0729 85.6562 32.3854 85.6562 30.4688C85.6562 28.5938 86.0521 26.8854 86.8438 25.3438C87.6562 23.8021 88.8021 22.4792 90.2812 21.375C91.7604 20.25 93.5 19.3854 95.5 18.7812C97.5208 18.1771 99.75 17.875 102.188 17.875C105.562 17.875 108.479 18.4896 110.938 19.7188C113.417 20.9479 115.333 22.6146 116.688 24.7188C118.042 26.8229 118.719 29.1875 118.719 31.8125H110.156C110.156 30.3958 109.854 29.1458 109.25 28.0625C108.667 26.9792 107.771 26.125 106.562 25.5C105.375 24.875 103.875 24.5625 102.062 24.5625C100.312 24.5625 98.8542 24.8229 97.6875 25.3438C96.5417 25.8646 95.6771 26.5729 95.0938 27.4688C94.5312 28.3646 94.25 29.3646 94.25 30.4688C94.25 31.3021 94.4479 32.0521 94.8438 32.7188C95.2396 33.3646 95.8333 33.9792 96.625 34.5625C97.4167 35.125 98.3958 35.6562 99.5625 36.1562C100.75 36.6354 102.125 37.1146 103.688 37.5938C106.188 38.3438 108.375 39.1771 110.25 40.0938C112.146 41.0104 113.719 42.0521 114.969 43.2188C116.24 44.3854 117.188 45.6979 117.812 47.1562C118.458 48.6146 118.781 50.2708 118.781 52.125C118.781 54.0833 118.396 55.8333 117.625 57.375C116.854 58.9167 115.75 60.2292 114.312 61.3125C112.875 62.3958 111.146 63.2188 109.125 63.7812C107.125 64.3438 104.885 64.625 102.406 64.625C100.198 64.625 98.0104 64.3333 95.8438 63.75C93.6979 63.1458 91.75 62.25 90 61.0625C88.25 59.8542 86.8542 58.3333 85.8125 56.5C84.7708 54.6458 84.25 52.4792 84.25 50H92.875C92.875 51.4375 93.1042 52.6667 93.5625 53.6875C94.0417 54.6875 94.7083 55.5104 95.5625 56.1562C96.4375 56.7812 97.4583 57.2396 98.625 57.5312C99.7917 57.8229 101.052 57.9688 102.406 57.9688C104.156 57.9688 105.594 57.7292 106.719 57.25C107.865 56.75 108.719 56.0625 109.281 55.1875C109.865 54.3125 110.156 53.3125 110.156 52.1875ZM139.969 64.625C137.406 64.625 135.104 64.2083 133.062 63.375C131.021 62.5417 129.281 61.3854 127.844 59.9062C126.427 58.4062 125.333 56.6667 124.562 54.6875C123.812 52.6875 123.438 50.5417 123.438 48.25V47C123.438 44.3958 123.812 42.0312 124.562 39.9062C125.312 37.7604 126.375 35.9167 127.75 34.375C129.125 32.8333 130.771 31.6458 132.688 30.8125C134.604 29.9792 136.719 29.5625 139.031 29.5625C141.427 29.5625 143.542 29.9688 145.375 30.7812C147.208 31.5729 148.74 32.6979 149.969 34.1562C151.198 35.6146 152.125 37.3646 152.75 39.4062C153.375 41.4271 153.688 43.6667 153.688 46.125V49.5938H127.188V43.9062H145.562V43.2812C145.521 41.9688 145.271 40.7708 144.812 39.6875C144.354 38.5833 143.646 37.7083 142.688 37.0625C141.729 36.3958 140.49 36.0625 138.969 36.0625C137.74 36.0625 136.667 36.3333 135.75 36.875C134.854 37.3958 134.104 38.1458 133.5 39.125C132.917 40.0833 132.479 41.2292 132.188 42.5625C131.896 43.8958 131.75 45.375 131.75 47V48.25C131.75 49.6667 131.938 50.9792 132.312 52.1875C132.708 53.3958 133.281 54.4479 134.031 55.3438C134.802 56.2188 135.719 56.9062 136.781 57.4062C137.865 57.8854 139.094 58.125 140.469 58.125C142.198 58.125 143.76 57.7917 145.156 57.125C146.573 56.4375 147.802 55.4271 148.844 54.0938L153 58.4062C152.292 59.4479 151.333 60.4479 150.125 61.4062C148.938 62.3646 147.5 63.1458 145.812 63.75C144.125 64.3333 142.177 64.625 139.969 64.625ZM177.844 56.8125V41.2188C177.844 40.0729 177.646 39.0833 177.25 38.25C176.854 37.4167 176.25 36.7708 175.438 36.3125C174.625 35.8542 173.594 35.625 172.344 35.625C171.24 35.625 170.271 35.8125 169.438 36.1875C168.625 36.5625 168 37.0938 167.562 37.7812C167.125 38.4479 166.906 39.2188 166.906 40.0938H158.625C158.625 38.6979 158.958 37.375 159.625 36.125C160.292 34.8542 161.24 33.7292 162.469 32.75C163.719 31.75 165.208 30.9688 166.938 30.4062C168.688 29.8438 170.646 29.5625 172.812 29.5625C175.375 29.5625 177.656 30 179.656 30.875C181.677 31.7292 183.26 33.0208 184.406 34.75C185.573 36.4792 186.156 38.6562 186.156 41.2812V56.0312C186.156 57.7188 186.26 59.1667 186.469 60.375C186.698 61.5625 187.031 62.5938 187.469 63.4688V64H179.062C178.667 63.1458 178.365 62.0625 178.156 60.75C177.948 59.4167 177.844 58.1042 177.844 56.8125ZM179 43.4062L179.062 48.3125H173.844C172.552 48.3125 171.417 48.4479 170.438 48.7188C169.458 48.9688 168.656 49.3438 168.031 49.8438C167.406 50.3229 166.938 50.9062 166.625 51.5938C166.312 52.2604 166.156 53.0208 166.156 53.875C166.156 54.7083 166.344 55.4583 166.719 56.125C167.115 56.7917 167.677 57.3229 168.406 57.7188C169.156 58.0938 170.031 58.2812 171.031 58.2812C172.49 58.2812 173.76 57.9896 174.844 57.4062C175.927 56.8021 176.771 56.0729 177.375 55.2188C177.979 54.3646 178.302 53.5521 178.344 52.7812L180.719 56.3438C180.427 57.1979 179.99 58.1042 179.406 59.0625C178.823 60.0208 178.073 60.9167 177.156 61.75C176.24 62.5833 175.135 63.2708 173.844 63.8125C172.552 64.3542 171.052 64.625 169.344 64.625C167.156 64.625 165.198 64.1875 163.469 63.3125C161.74 62.4375 160.375 61.2396 159.375 59.7188C158.375 58.1979 157.875 56.4688 157.875 54.5312C157.875 52.7396 158.208 51.1562 158.875 49.7812C159.542 48.4062 160.531 47.25 161.844 46.3125C163.156 45.3542 164.781 44.6354 166.719 44.1562C168.677 43.6562 170.917 43.4062 173.438 43.4062H179ZM201.844 37.0938V64H193.594V30.1875H201.406L201.844 37.0938ZM212.125 29.9688L212 37.6562C211.542 37.5729 211.021 37.5104 210.438 37.4688C209.875 37.4271 209.344 37.4062 208.844 37.4062C207.573 37.4062 206.458 37.5833 205.5 37.9375C204.542 38.2708 203.74 38.7604 203.094 39.4062C202.469 40.0521 201.99 40.8438 201.656 41.7812C201.323 42.6979 201.135 43.7396 201.094 44.9062L199.312 44.6875C199.312 42.5417 199.531 40.5521 199.969 38.7188C200.406 36.8854 201.042 35.2812 201.875 33.9062C202.708 32.5312 203.75 31.4688 205 30.7188C206.271 29.9479 207.729 29.5625 209.375 29.5625C209.833 29.5625 210.323 29.6042 210.844 29.6875C211.385 29.75 211.812 29.8438 212.125 29.9688ZM229.906 58.125C231.073 58.125 232.115 57.8958 233.031 57.4375C233.948 56.9792 234.677 56.3333 235.219 55.5C235.781 54.6667 236.083 53.6979 236.125 52.5938H243.906C243.865 54.8854 243.219 56.9375 241.969 58.75C240.719 60.5625 239.052 62 236.969 63.0625C234.906 64.1042 232.594 64.625 230.031 64.625C227.427 64.625 225.156 64.1875 223.219 63.3125C221.281 62.4375 219.667 61.2188 218.375 59.6562C217.104 58.0938 216.146 56.2812 215.5 54.2188C214.875 52.1562 214.562 49.9479 214.562 47.5938V46.5938C214.562 44.2396 214.875 42.0312 215.5 39.9688C216.146 37.9062 217.104 36.0938 218.375 34.5312C219.667 32.9688 221.281 31.75 223.219 30.875C225.156 30 227.417 29.5625 230 29.5625C232.729 29.5625 235.125 30.0938 237.188 31.1562C239.271 32.2188 240.896 33.7188 242.062 35.6562C243.25 37.5938 243.865 39.875 243.906 42.5H236.125C236.083 41.2917 235.812 40.2083 235.312 39.25C234.812 38.2917 234.104 37.5208 233.188 36.9375C232.271 36.3542 231.156 36.0625 229.844 36.0625C228.448 36.0625 227.281 36.3542 226.344 36.9375C225.427 37.5208 224.708 38.3229 224.188 39.3438C223.688 40.3438 223.333 41.4688 223.125 42.7188C222.938 43.9479 222.844 45.2396 222.844 46.5938V47.5938C222.844 48.9688 222.938 50.2812 223.125 51.5312C223.333 52.7812 223.688 53.9062 224.188 54.9062C224.708 55.8854 225.427 56.6667 226.344 57.25C227.281 57.8333 228.469 58.125 229.906 58.125ZM257.5 16V64H249.219V16H257.5ZM256.188 45.875H253.75C253.75 43.5208 254.062 41.3542 254.688 39.375C255.312 37.3958 256.198 35.6771 257.344 34.2188C258.49 32.7396 259.854 31.5938 261.438 30.7812C263.042 29.9688 264.812 29.5625 266.75 29.5625C268.417 29.5625 269.927 29.8021 271.281 30.2812C272.656 30.7396 273.833 31.4792 274.812 32.5C275.792 33.5208 276.542 34.8542 277.062 36.5C277.604 38.125 277.875 40.1042 277.875 42.4375V64H269.562V42.375C269.562 40.8125 269.333 39.5833 268.875 38.6875C268.417 37.7708 267.76 37.1146 266.906 36.7188C266.073 36.3229 265.042 36.125 263.812 36.125C262.479 36.125 261.333 36.3854 260.375 36.9062C259.417 37.4062 258.625 38.1042 258 39C257.396 39.8958 256.938 40.9271 256.625 42.0938C256.333 43.2604 256.188 44.5208 256.188 45.875ZM285.5 59.9688C285.5 58.7188 285.927 57.6667 286.781 56.8125C287.635 55.9583 288.792 55.5312 290.25 55.5312C291.708 55.5312 292.865 55.9583 293.719 56.8125C294.573 57.6667 295 58.7188 295 59.9688C295 61.1979 294.573 62.2396 293.719 63.0938C292.865 63.9271 291.708 64.3438 290.25 64.3438C288.792 64.3438 287.635 63.9271 286.781 63.0938C285.927 62.2396 285.5 61.1979 285.5 59.9688ZM303.75 30.1875H312.062V66.5C312.062 68.8958 311.625 70.9271 310.75 72.5938C309.896 74.2604 308.656 75.5208 307.031 76.375C305.406 77.2292 303.417 77.6562 301.062 77.6562C300.333 77.6562 299.604 77.6146 298.875 77.5312C298.146 77.4479 297.427 77.3125 296.719 77.125L296.75 70.75C297.208 70.8333 297.677 70.8958 298.156 70.9375C298.635 71 299.115 71.0312 299.594 71.0312C300.49 71.0312 301.24 70.875 301.844 70.5625C302.469 70.25 302.938 69.7604 303.25 69.0938C303.583 68.4271 303.75 67.5625 303.75 66.5V30.1875ZM303.062 21.3438C303.062 20.1146 303.479 19.0938 304.312 18.2812C305.167 17.4688 306.312 17.0625 307.75 17.0625C309.188 17.0625 310.323 17.4688 311.156 18.2812C312.01 19.0938 312.438 20.1146 312.438 21.3438C312.438 22.5521 312.01 23.5625 311.156 24.375C310.323 25.1875 309.188 25.5938 307.75 25.5938C306.312 25.5938 305.167 25.1875 304.312 24.375C303.479 23.5625 303.062 22.5521 303.062 21.3438ZM338.312 54.75C338.312 54.0417 338.125 53.4062 337.75 52.8438C337.375 52.2812 336.667 51.7708 335.625 51.3125C334.604 50.8333 333.104 50.3854 331.125 49.9688C329.375 49.5938 327.76 49.125 326.281 48.5625C324.802 48 323.531 47.3229 322.469 46.5312C321.406 45.7188 320.573 44.7708 319.969 43.6875C319.385 42.5833 319.094 41.3125 319.094 39.875C319.094 38.4792 319.396 37.1667 320 35.9375C320.604 34.6875 321.479 33.5938 322.625 32.6562C323.771 31.6979 325.167 30.9479 326.812 30.4062C328.458 29.8438 330.312 29.5625 332.375 29.5625C335.25 29.5625 337.719 30.0312 339.781 30.9688C341.865 31.9062 343.458 33.1979 344.562 34.8438C345.667 36.4688 346.219 38.3021 346.219 40.3438H337.969C337.969 39.4479 337.76 38.6354 337.344 37.9062C336.948 37.1771 336.333 36.5938 335.5 36.1562C334.667 35.6979 333.615 35.4688 332.344 35.4688C331.198 35.4688 330.229 35.6562 329.438 36.0312C328.667 36.4062 328.083 36.8958 327.688 37.5C327.292 38.1042 327.094 38.7708 327.094 39.5C327.094 40.0417 327.198 40.5312 327.406 40.9688C327.635 41.3854 328 41.7708 328.5 42.125C329 42.4792 329.677 42.8021 330.531 43.0938C331.406 43.3854 332.479 43.6667 333.75 43.9375C336.271 44.4375 338.469 45.1042 340.344 45.9375C342.24 46.75 343.719 47.8333 344.781 49.1875C345.844 50.5417 346.375 52.2708 346.375 54.375C346.375 55.875 346.052 57.25 345.406 58.5C344.76 59.7292 343.823 60.8021 342.594 61.7188C341.365 62.6354 339.896 63.3542 338.188 63.875C336.479 64.375 334.552 64.625 332.406 64.625C329.302 64.625 326.677 64.0729 324.531 62.9688C322.385 61.8438 320.76 60.4271 319.656 58.7188C318.552 56.9896 318 55.1979 318 53.3438H325.906C325.969 54.6562 326.323 55.7083 326.969 56.5C327.615 57.2917 328.427 57.8646 329.406 58.2188C330.406 58.5521 331.458 58.7188 332.562 58.7188C333.812 58.7188 334.865 58.5521 335.719 58.2188C336.573 57.8646 337.219 57.3958 337.656 56.8125C338.094 56.2083 338.312 55.5208 338.312 54.75Z" fill="#484848"/>
<circle cx="379.5" cy="54.5" r="9.5" fill="url(#paint0_radial_3_23)"/>
<g clip-path="url(#clip0_3_23)">
<path d="M24.8594 5.66562C24.6281 5.66562 24.5125 5.55 24.2812 5.43437C23.9344 5.0875 23.9344 4.625 24.2812 4.39375L26.0156 2.65937C26.3625 2.3125 26.825 2.3125 27.0562 2.65937L28.5594 4.1625C28.9062 4.50937 28.9062 4.97187 28.5594 5.20312C28.2125 5.55 27.75 5.55 27.5187 5.20312L26.5937 4.27812L25.4375 5.43437C25.3219 5.55 25.0906 5.66562 24.8594 5.66562Z" fill="#FF9D23"/>
<path d="M65.5594 60.3562C65.3281 60.3562 65.2125 60.2406 64.9813 60.125C64.6344 59.7781 64.6344 59.3156 64.9813 59.0844L66.7156 57.35C66.8313 57.2344 67.0625 57.1187 67.2938 57.1187C67.525 57.1187 67.6406 57.2344 67.8719 57.35L69.375 58.8531C69.7219 59.2 69.7219 59.6625 69.375 59.8937C69.0281 60.2406 68.5656 60.2406 68.3344 59.8937L67.2938 58.9687L66.1375 60.125C65.9063 60.2406 65.7906 60.3562 65.5594 60.3562ZM0.69375 43.3594C0.4625 43.3594 0.346875 43.2437 0.115625 43.1281C-0.23125 42.7812 -0.23125 42.3187 0.115625 42.0875L2.3125 39.8906C2.65938 39.5437 3.12188 39.5437 3.35313 39.8906C3.7 40.2375 3.7 40.7 3.35313 40.9312L1.15625 43.1281C1.15625 43.2437 0.925 43.3594 0.69375 43.3594Z" fill="#9495FA"/>
<path d="M70.6469 39.5438C70.4156 39.5438 70.3 39.4281 70.0688 39.3125C69.7219 38.9656 69.7219 38.5031 70.0688 38.2719L72.7281 35.6125C73.075 35.2656 73.5375 35.2656 73.7688 35.6125C74.1156 35.9594 74.1156 36.4219 73.7688 36.6531L71.1094 39.3125C70.9938 39.5437 70.8781 39.5438 70.6469 39.5438Z" fill="#FF4B4D"/>
<path d="M17.9219 68.2187C17.6906 68.2187 17.575 68.1031 17.3437 67.9875C16.9969 67.6406 16.9969 67.1781 17.3437 66.9469L20.0031 64.2875C20.35 63.9406 20.8125 63.9406 21.0437 64.2875C21.3906 64.6344 21.3906 65.0969 21.0437 65.3281L18.5 67.9875C18.2687 68.1031 18.1531 68.2187 17.9219 68.2187Z" fill="#0000DB"/>
<path d="M47.4063 71.5719C47.175 71.5719 47.0594 71.4562 46.8281 71.3406C46.4813 70.9937 46.4813 70.5312 46.8281 70.3L49.4875 67.6406C49.8344 67.2937 50.2969 67.2937 50.5281 67.6406C50.875 67.9875 50.875 68.45 50.5281 68.6812L47.8688 71.3406C47.7531 71.4562 47.5219 71.5719 47.4063 71.5719Z" fill="#FF9D23"/>
<path d="M52.2625 26.1312C50.0656 23.5875 47.6375 21.0437 44.4 20.4656C43.2438 20.2344 42.0875 20.35 40.9313 20.5812C37.2313 21.275 33.9938 23.2406 30.8719 25.2062C27.0563 27.5187 23.2406 29.8312 19.5406 32.1437C16.7656 33.7625 14.1063 35.4969 11.9094 37.8094C9.7125 40.1219 8.09375 43.1281 8.09375 46.25C8.09375 50.0656 10.5219 53.5344 13.6438 55.7312C16.7656 57.9281 20.5813 58.8531 24.3969 59.4312C28.2125 60.0094 32.0281 60.125 35.7281 60.9344C39.1969 61.6281 42.4344 62.9 45.9031 63.4781C49.3719 64.0562 53.0719 64.0562 56.0781 62.3219C59.4313 60.3562 61.3969 56.6562 63.2469 53.1875C64.2875 51.2219 65.2125 49.2562 65.5594 47.0594C66.1375 43.1281 63.825 40.0062 61.5125 37.1156C58.3906 33.4156 55.3844 29.7156 52.2625 26.1312Z" fill="url(#paint1_linear_3_23)"/>
<path d="M37.1156 7.8625V12.2563" stroke="#0000DB" stroke-width="1.327" stroke-miterlimit="10" stroke-linecap="round" stroke-linejoin="round"/>
<path d="M49.7187 29.6C49.7187 33.0688 48.3312 36.1906 46.0187 38.5031C43.3594 41.2781 42.7812 42.4344 42.7812 46.25V46.8281H31.2187V46.0188C31.2187 42.2031 30.6406 41.0469 27.8656 38.3875C25.4375 35.9594 24.05 32.6063 24.1656 28.9063C24.5125 22.3156 30.0625 16.9969 36.6531 16.8813C43.9375 16.7656 49.7187 22.5469 49.7187 29.6Z" fill="#F86C66" stroke="#0000DB" stroke-width="1.327" stroke-miterlimit="10" stroke-linecap="round" stroke-linejoin="round"/>
<path d="M43.2438 46.9438H30.6406V50.0656H43.2438V46.9438Z" fill="#FED3BE" stroke="#0000DB" stroke-width="1.327" stroke-miterlimit="10" stroke-linecap="round" stroke-linejoin="round"/>
<path d="M43.2438 50.0656V51.1063C43.2438 52.0313 42.6656 52.8406 41.7406 53.0719C41.625 53.1875 41.3937 53.1875 41.1625 53.1875H32.8375C32.6062 53.1875 32.375 53.1875 32.1437 53.0719C31.3344 52.8406 30.6406 52.0313 30.6406 51.1063V50.0656H43.2438Z" fill="#F86C66" stroke="#0000DB" stroke-width="1.327" stroke-miterlimit="10" stroke-linecap="round" stroke-linejoin="round"/>
<path d="M41.8563 53.0719C41.8563 54.8062 39.6594 56.6562 37 56.6562C34.3406 56.6562 32.1438 54.8062 32.1438 53.0719C32.375 53.1875 32.6063 53.1875 32.8375 53.1875H41.1625C41.3938 53.1875 41.625 53.1875 41.8563 53.0719Z" fill="#FED3BE" stroke="#0000DB" stroke-width="1.327" stroke-miterlimit="10" stroke-linecap="round" stroke-linejoin="round"/>
<path d="M19.8875 12.1406L23.2406 15.4937" stroke="#0000DB" stroke-width="1.327" stroke-miterlimit="10" stroke-linecap="round" stroke-linejoin="round"/>
<path d="M12.6031 29.0219H17.3437" stroke="#0000DB" stroke-width="1.327" stroke-miterlimit="10" stroke-linecap="round" stroke-linejoin="round"/>
<path d="M19.425 46.0187L22.7781 42.6656" stroke="#0000DB" stroke-width="1.327" stroke-miterlimit="10" stroke-linecap="round" stroke-linejoin="round"/>
<path d="M53.7656 46.4813L50.2969 43.1281" stroke="#0000DB" stroke-width="1.327" stroke-miterlimit="10" stroke-linecap="round" stroke-linejoin="round"/>
<path d="M61.05 29.6H56.3094" stroke="#0000DB" stroke-width="1.327" stroke-miterlimit="10" stroke-linecap="round" stroke-linejoin="round"/>
<path d="M54.2281 12.6031L50.875 15.9563" stroke="#0000DB" stroke-width="1.327" stroke-miterlimit="10" stroke-linecap="round" stroke-linejoin="round"/>
<path d="M32.1437 28.4438C31.45 28.4438 30.8719 27.8656 30.8719 27.1719C30.8719 26.4781 31.45 25.9 32.1437 25.9C32.8375 25.9 33.4156 26.4781 33.4156 27.1719C33.4156 27.8656 32.8375 28.4438 32.1437 28.4438ZM41.5094 28.4438C40.8156 28.4438 40.2375 27.8656 40.2375 27.1719C40.2375 26.4781 40.8156 25.9 41.5094 25.9C42.2031 25.9 42.7812 26.4781 42.7812 27.1719C42.7812 27.8656 42.2031 28.4438 41.5094 28.4438ZM36.8844 36.4219C34.1094 36.4219 32.2594 34.225 32.2594 34.225C32.0281 33.9938 32.1437 33.6469 32.2594 33.5313C32.4906 33.3 32.8375 33.4156 32.9531 33.5313C32.9531 33.5313 34.5719 35.3813 36.7687 35.3813C36.7687 35.3813 36.7687 35.3813 36.8844 35.3813C38.1562 35.3813 39.4281 34.6875 40.5844 33.5313C40.8156 33.3 41.0469 33.3 41.2781 33.5313C41.5094 33.7625 41.5094 33.9938 41.2781 34.225C40.0062 35.7281 38.5031 36.4219 36.8844 36.4219Z" fill="white"/>
</g>
<defs>
<radialGradient id="paint0_radial_3_23" cx="0" cy="0" r="1" gradientUnits="userSpaceOnUse" gradientTransform="translate(379.5 54.5) rotate(90) scale(9.5)">
<stop stop-color="#00FF29"/>
<stop offset="0.484375" stop-color="#70FF00"/>
<stop offset="1" stop-color="#74FF06"/>
</radialGradient>
<linearGradient id="paint1_linear_3_23" x1="31.9965" y1="22.4262" x2="40.8809" y2="65.881" gradientUnits="userSpaceOnUse">
<stop stop-color="white" stop-opacity="0.25"/>
<stop offset="1" stop-color="#9495FA" stop-opacity="0.7"/>
</linearGradient>
<clipPath id="clip0_3_23">
<rect width="74" height="74" fill="white"/>
</clipPath>
</defs>
</svg>
