<svg xmlns="http://www.w3.org/2000/svg" width="32" height="32" viewBox="0 0 32 32"><g transform="translate(-766.497 -1582.394)"><path fill="#4f8df5" d="m 786.00401,1598.3662 9.75807,9.758 c 0.97934,0.9794 0.97932,2.5563 -10e-6,3.5356 -0.97937,0.9794 -2.5562,0.9794 -3.53554,0 l -9.75809,-9.758"/><circle cx="-576.927" cy="1678.804" r="9.5" fill="#53c4f7" transform="rotate(-45)"/><path fill="#f9f9f9" d="m 772.7811,1590.8003 1.52469,1.5247 a 5.25,5.25 0 0 0 -0.54137,1.2181 l -2.11856,0 0,2.9997 2.11579,0 a 5.25,5.25 0 0 0 0.54553,1.2167 l -1.52608,1.5261 2.12132,2.1213 1.63104,-1.631 a 5.25,5.25 0 0 0 1.11176,0.388 l 0,2.3783 2.99968,0 0,-2.5909 a 5.25,5.25 0 0 0 0.86316,-0.424 l 1.87964,1.8796 2.12132,-2.1213 -1.9846,-1.9846 a 5.25,5.25 0 0 0 0.29417,-0.7582 l 2.82567,0 0,-2.9997 -2.82291,0 a 5.25,5.25 0 0 0 -0.29693,-0.7582 l 1.9846,-1.9846 -2.12132,-2.1213 -1.87826,1.8783 a 5.25,5.25 0 0 0 -0.86454,-0.4199 l 0,-2.5936 -2.99968,0 0,2.3809 a 5.25,5.25 0 0 0 -1.11176,0.3853 l -1.63104,-1.631 -2.12132,2.1213 z"/></g></svg>